<svg xmlns="http://www.w3.org/2000/svg" xmlns:xlink="http://www.w3.org/1999/xlink" version="1.1" x="0px" y="0px" viewBox="0 0 100 100" enable-background="new 0 0 100 100" xml:space="preserve">
  <path fill="#d8d8d8" d="M20,80.938h60c3.618,0,6.562-2.944,6.562-6.562v-52.5c0-3.618-2.944-6.562-6.562-6.562H20  c-3.618,0-6.562,2.944-6.562,6.562v52.5C13.438,77.993,16.382,80.938,20,80.938z M20,17.188h60c2.586,0,4.688,2.102,4.688,4.688  v4.688H15.312v-4.688C15.312,19.29,17.414,17.188,20,17.188z M15.312,28.438h69.375v45.938c0,2.585-2.102,4.688-4.688,4.688H20  c-2.586,0-4.688-2.102-4.688-4.688V28.438z"></path>
  <circle fill="#ff5f4b" cx="21.875" cy="21.875" r="1.875"></circle>
  <circle fill="#ffbe00" cx="29.375" cy="21.875" r="1.875"></circle>
  <circle fill="#00cd28" cx="36.875" cy="21.875" r="1.875"></circle>
  <ellipse fill="#d8d8d8" cx="40.625" cy="56.562" rx="1.875" ry="2.812"></ellipse>
  <ellipse fill="#d8d8d8" cx="59.375" cy="56.562" rx="1.875" ry="2.812"></ellipse>
  <path fill="#d8d8d8" d="M41.562,66.875c0,0.518,0.419,0.938,0.938,0.938h15c0.519,0,0.938-0.419,0.938-0.938  s-0.419-0.938-0.938-0.938h-15C41.981,65.938,41.562,66.357,41.562,66.875z"></path>
</svg>